<?xml version="1.0" encoding="utf-8"?>
<!-- Generator: Adobe Illustrator 18.0.0, SVG Export Plug-In . SVG Version: 6.00 Build 0)  -->
<!DOCTYPE svg PUBLIC "-//W3C//DTD SVG 1.1//EN" "http://www.w3.org/Graphics/SVG/1.1/DTD/svg11.dtd">
<svg version="1.1" id="Layer_1" xmlns="http://www.w3.org/2000/svg" xmlns:xlink="http://www.w3.org/1999/xlink" x="0px" y="0px"
	 viewBox="16.7 291.6 724.6 148.3" enable-background="new 16.7 291.6 724.6 148.3" xml:space="preserve">
<g id="Layer_2">
</g>
<g>
	<path fill="#3D4C53" d="M151.9,314.2h-42.7v37.7h31.6v20.4h-31.6v44.3h42.7V437H87V293.9h64.8L151.9,314.2L151.9,314.2z"/>
	<path fill="#3D4C53" d="M287.4,437h-21.1V331.6L241.4,437h-12.5l-24.7-105.4V437h-21V293.9h32.4l19.8,89.9l19.9-89.9h32V437H287.4z
		"/>
	<path fill="#3D4C53" d="M343.2,437h-22.1V293.9h34.6c13.1,0,21.5,2.6,28.4,8.6c8.6,7.3,12.9,18.2,12.9,32.4
		c0,18.1-6.5,30.5-19.3,37.1l21.1,65.1h-23.2l-18.9-58.9h-13.3V437H343.2z M351.4,357.8c9.5,0,13.8-1,17.2-4.6
		c3.6-3.6,5.3-9.5,5.3-17.4c0-7.7-1.7-13.5-5.3-17.2c-3.4-3.4-7.7-4.6-17.2-4.6h-8.2v43.7h8.2V357.8z"/>
	<path fill="#3D4C53" d="M454.5,437h-22.1V293.9h22.1V437z"/>
	<path fill="#3D4C53" d="M542.1,340.5v-3c0-16.5-5.9-24.9-16.8-24.9c-6,0-10.7,2.6-13.1,7c-2.7,4.7-3.4,9-3.4,20.6v47.6
		c0,10.9,0.7,16.5,2.3,21.2c2.1,5.6,7.7,9.2,14.2,9.2c8.2,0,13.5-4.7,15.9-14.2c0.9-3.6,1-6.9,1.3-17.4h22.4v4.9
		c0,31.1-13.5,47.5-39.3,47.5c-14.4,0-25.8-5.6-32-15.9c-5.3-8.9-6.9-17.2-6.9-38.4v-40.1c0-22.8,1.7-30.7,8.3-39.7
		c6.2-8.6,16.9-13.3,30.3-13.3c24.5,0,38.9,16.3,38.9,44.5v4.3L542.1,340.5L542.1,340.5L542.1,340.5z"/>
	<path fill="#3D4C53" d="M617.4,373.9V437h-22.1V293.9h22.1v59.7H649v-59.7h22.1v143.3H649v-63.1h-31.6V373.9z"/>
</g>
<g id="Layer_3">
</g>
</svg>
